<svg width="130" height="128" viewBox="0 0 130 128" fill="none" xmlns="http://www.w3.org/2000/svg">
<path d="M65.0003 7.31259L0 44.2613V120.687H130V44.2613L65.0003 7.31259ZM12.1624 104.291C20.4252 104.287 29.3075 103.925 38.7733 103.184C38.7733 103.184 38.7331 105.812 40.1115 108.72H12.1544L12.1624 104.291ZM47.5304 101.944C47.5304 101.944 50.215 102.253 52.6223 98.5063C52.6223 98.5063 54.8808 97.1068 56.0168 98.9818C56.0168 98.9818 55.8782 101.321 53.7542 101.944C53.7542 101.944 52.489 105.788 55.5138 108.712H47.7782C46.6636 107.269 43.1974 102.343 47.5304 101.944ZM117.838 108.712H57.5152C58.8689 107.691 60.9219 105.32 61.3874 100.073C61.3874 100.073 62.9413 94.1404 57.4221 92.4329C57.2165 92.363 57.1194 92.3392 56.9452 92.2773C57.674 90.8587 63.4303 79.3437 62.3774 70.2913C62.3774 70.2913 70.8518 73.7221 68.4505 63.5868C68.4505 63.5868 63.7846 55.3226 68.3079 52.9873C68.3079 52.9873 77.0757 54.6987 82.3015 47.8418C82.3015 47.8418 87.6707 42.2169 84.8434 40.975L71.8418 39.104C71.8418 39.104 58.9808 28.9767 52.6229 41.2949C51.4608 43.5458 51.3536 48.7638 51.3536 48.7638C52.0563 49.5334 54.6297 75.971 12.1584 79.5073V51.167L64.9963 21.1417L117.835 51.167L117.838 108.712Z" fill="black"/>
</svg>
